<svg xmlns="http://www.w3.org/2000/svg" xmlns:xlink="http://www.w3.org/1999/xlink" width="2000" zoomAndPan="magnify" viewBox="0 0 1500 374.999991" height="500" preserveAspectRatio="xMidYMid meet" version="1.0"><defs><g/><clipPath id="afcc25f417"><path d="M 93.527344 6.417969 L 545.777344 6.417969 L 545.777344 374.667969 L 93.527344 374.667969 Z M 93.527344 6.417969 " clip-rule="nonzero"/></clipPath></defs><rect x="-150" width="1800" fill="#ffffff" y="-37.499999" height="449.999989" fill-opacity="1"/><rect x="-150" width="1800" fill="#ffffff" y="-37.499999" height="449.999989" fill-opacity="1"/><rect x="-150" width="1800" fill="#ffffff" y="-37.499999" height="449.999989" fill-opacity="1"/><g fill="#131325" fill-opacity="1"><g transform="translate(582.089285, 211.103888)"><g><path d="M 47.578125 -99.375 C 62.273438 -99.375 75.191406 -95.722656 86.328125 -88.421875 L 76.921875 -68.921875 C 71.773438 -71.910156 66.253906 -74.363281 60.359375 -76.28125 C 54.460938 -78.195312 49.5 -79.15625 45.46875 -79.15625 C 38.269531 -79.15625 34.671875 -76.769531 34.671875 -72 C 34.671875 -68.914062 36.445312 -66.4375 40 -64.5625 C 43.5625 -62.695312 47.890625 -61.082031 52.984375 -59.71875 C 58.085938 -58.363281 63.1875 -56.726562 68.28125 -54.8125 C 73.382812 -52.894531 77.710938 -49.78125 81.265625 -45.46875 C 84.828125 -41.164062 86.609375 -35.738281 86.609375 -29.1875 C 86.609375 -19.738281 82.910156 -12.367188 75.515625 -7.078125 C 68.117188 -1.796875 58.710938 0.84375 47.296875 0.84375 C 39.160156 0.84375 31.113281 -0.554688 23.15625 -3.359375 C 15.207031 -6.171875 8.285156 -10.007812 2.390625 -14.875 L 12.078125 -34.109375 C 17.035156 -29.804688 22.878906 -26.273438 29.609375 -23.515625 C 36.347656 -20.753906 42.335938 -19.375 47.578125 -19.375 C 51.609375 -19.375 54.742188 -20.097656 56.984375 -21.546875 C 59.234375 -22.992188 60.359375 -25.125 60.359375 -27.9375 C 60.359375 -30.644531 59.070312 -32.910156 56.5 -34.734375 C 53.925781 -36.554688 50.71875 -37.910156 46.875 -38.796875 C 43.039062 -39.691406 38.878906 -40.890625 34.390625 -42.390625 C 29.898438 -43.890625 25.734375 -45.523438 21.890625 -47.296875 C 18.054688 -49.078125 14.851562 -51.910156 12.28125 -55.796875 C 9.707031 -59.679688 8.421875 -64.335938 8.421875 -69.765625 C 8.421875 -78.742188 12 -85.921875 19.15625 -91.296875 C 26.3125 -96.679688 35.785156 -99.375 47.578125 -99.375 Z M 47.578125 -99.375 "/></g></g></g><g fill="#131325" fill-opacity="1"><g transform="translate(686.366228, 211.103888)"><g><path d="M 56.421875 -99.09375 C 71.671875 -99.09375 84.347656 -94.34375 94.453125 -84.84375 C 104.566406 -75.34375 109.625 -63.484375 109.625 -49.265625 C 109.625 -34.953125 104.546875 -22.972656 94.390625 -13.328125 C 84.234375 -3.691406 71.578125 1.125 56.421875 1.125 C 41.265625 1.125 28.632812 -3.671875 18.53125 -13.265625 C 8.425781 -22.859375 3.375 -34.859375 3.375 -49.265625 C 3.375 -63.578125 8.425781 -75.457031 18.53125 -84.90625 C 28.632812 -94.363281 41.265625 -99.09375 56.421875 -99.09375 Z M 56.703125 -78.1875 C 49.035156 -78.1875 42.484375 -75.398438 37.046875 -69.828125 C 31.617188 -64.265625 28.90625 -57.363281 28.90625 -49.125 C 28.90625 -40.894531 31.644531 -33.945312 37.125 -28.28125 C 42.601562 -22.625 49.128906 -19.796875 56.703125 -19.796875 C 64.285156 -19.796875 70.71875 -22.625 76 -28.28125 C 81.289062 -33.945312 83.9375 -40.894531 83.9375 -49.125 C 83.9375 -57.363281 81.289062 -64.265625 76 -69.828125 C 70.71875 -75.398438 64.285156 -78.1875 56.703125 -78.1875 Z M 56.703125 -78.1875 "/></g></g></g><g fill="#131325" fill-opacity="1"><g transform="translate(813.2385, 211.103888)"><g><path d="M 82.671875 -78.59375 L 34.8125 -78.59375 L 34.8125 -55.859375 L 78.875 -55.859375 L 78.875 -36.21875 L 34.8125 -36.21875 L 34.8125 0 L 9.828125 0 L 9.828125 -98.25 L 82.671875 -98.25 Z M 82.671875 -78.59375 "/></g></g></g><g fill="#131325" fill-opacity="1"><g transform="translate(911.901694, 211.103888)"><g><path d="M 84.921875 -78.1875 L 55.296875 -78.1875 L 55.296875 0 L 30.3125 0 L 30.3125 -78.1875 L 0.984375 -78.1875 L 0.984375 -98.390625 L 84.921875 -98.390625 Z M 84.921875 -78.1875 "/></g></g></g><g fill="#131325" fill-opacity="1"><g transform="translate(1011.547294, 211.103888)"><g><path d="M 69.0625 0 L 54.453125 -27.65625 L 34.8125 -27.65625 L 34.8125 0 L 9.828125 0 L 9.828125 -98.25 L 53.75 -98.25 C 66.757812 -98.25 76.820312 -95.273438 83.9375 -89.328125 C 91.050781 -83.390625 94.609375 -74.945312 94.609375 -64 C 94.609375 -48.84375 88.664062 -38.316406 76.78125 -32.421875 L 97.40625 0 Z M 34.8125 -47.296875 L 53.75 -47.296875 C 59.1875 -47.296875 63.398438 -48.648438 66.390625 -51.359375 C 69.378906 -54.078125 70.875 -58.007812 70.875 -63.15625 C 70.875 -68.207031 69.378906 -72.039062 66.390625 -74.65625 C 63.398438 -77.28125 59.1875 -78.59375 53.75 -78.59375 L 34.8125 -78.59375 Z M 34.8125 -47.296875 "/></g></g></g><g fill="#131325" fill-opacity="1"><g transform="translate(1127.051726, 211.103888)"><g><path d="M 75.09375 -18.109375 L 32.140625 -18.109375 L 24.984375 0 L -0.703125 0 L 41.6875 -98.25 L 67.375 -98.25 L 108.78125 0 L 82.109375 0 Z M 67.796875 -37.0625 L 53.75 -73.40625 L 39.4375 -37.0625 Z M 67.796875 -37.0625 "/></g></g></g><g fill="#131325" fill-opacity="1"><g transform="translate(1249.011999, 211.103888)"><g><path d="M 84.921875 -78.1875 L 55.296875 -78.1875 L 55.296875 0 L 30.3125 0 L 30.3125 -78.1875 L 0.984375 -78.1875 L 0.984375 -98.390625 L 84.921875 -98.390625 Z M 84.921875 -78.1875 "/></g></g></g><g fill="#131325" fill-opacity="1"><g transform="translate(1348.657623, 211.103888)"><g><path d="M 86.734375 -78.59375 L 34.8125 -78.59375 L 34.8125 -59.09375 L 81.6875 -59.09375 L 81.6875 -39.4375 L 34.8125 -39.4375 L 34.8125 -19.65625 L 88.28125 -19.65625 L 88.28125 0 L 9.828125 0 L 9.828125 -98.25 L 86.734375 -98.25 Z M 86.734375 -78.59375 "/></g></g></g><g fill="#131325" fill-opacity="1"><g transform="translate(670.791707, 306.820086)"><g><path d="M 5.015625 -61.59375 L 25.78125 -61.59375 L 25.78125 0 L 5.015625 0 Z M 5.015625 -61.59375 "/></g></g></g><g fill="#131325" fill-opacity="1"><g transform="translate(728.777216, 306.820086)"><g><path d="M 65.71875 -61.59375 L 65.71875 0 L 48.65625 0 L 25.25 -27.984375 L 25.25 0 L 5.015625 0 L 5.015625 -61.59375 L 22.078125 -61.59375 L 45.484375 -33.609375 L 45.484375 -61.59375 Z M 65.71875 -61.59375 "/></g></g></g><g fill="#131325" fill-opacity="1"><g transform="translate(826.7076, 306.820086)"><g><path d="M 70.828125 -61.59375 L 44.78125 0 L 24.375 0 L -1.671875 -61.59375 L 20.671875 -61.59375 L 35.375 -25.609375 L 50.421875 -61.59375 Z M 70.828125 -61.59375 "/></g></g></g><g fill="#131325" fill-opacity="1"><g transform="translate(923.054258, 306.820086)"><g><path d="M 37.3125 1.40625 C 30.675781 1.40625 24.71875 0.03125 19.4375 -2.71875 C 14.164062 -5.476562 10.03125 -9.304688 7.03125 -14.203125 C 4.039062 -19.109375 2.546875 -24.640625 2.546875 -30.796875 C 2.546875 -36.953125 4.039062 -42.476562 7.03125 -47.375 C 10.03125 -52.269531 14.164062 -56.097656 19.4375 -58.859375 C 24.71875 -61.617188 30.675781 -63 37.3125 -63 C 43.9375 -63 49.882812 -61.617188 55.15625 -58.859375 C 60.4375 -56.097656 64.570312 -52.269531 67.5625 -47.375 C 70.5625 -42.476562 72.0625 -36.953125 72.0625 -30.796875 C 72.0625 -24.640625 70.5625 -19.109375 67.5625 -14.203125 C 64.570312 -9.304688 60.4375 -5.476562 55.15625 -2.71875 C 49.882812 0.03125 43.9375 1.40625 37.3125 1.40625 Z M 37.3125 -15.390625 C 39.882812 -15.390625 42.210938 -16.019531 44.296875 -17.28125 C 46.378906 -18.550781 48.035156 -20.34375 49.265625 -22.65625 C 50.503906 -24.96875 51.125 -27.679688 51.125 -30.796875 C 51.125 -33.898438 50.503906 -36.609375 49.265625 -38.921875 C 48.035156 -41.242188 46.378906 -43.035156 44.296875 -44.296875 C 42.210938 -45.554688 39.882812 -46.1875 37.3125 -46.1875 C 34.726562 -46.1875 32.394531 -45.554688 30.3125 -44.296875 C 28.226562 -43.035156 26.566406 -41.242188 25.328125 -38.921875 C 24.097656 -36.609375 23.484375 -33.898438 23.484375 -30.796875 C 23.484375 -27.679688 24.097656 -24.96875 25.328125 -22.65625 C 26.566406 -20.34375 28.226562 -18.550781 30.3125 -17.28125 C 32.394531 -16.019531 34.726562 -15.390625 37.3125 -15.390625 Z M 37.3125 -15.390625 "/></g></g></g><g fill="#131325" fill-opacity="1"><g transform="translate(1024.855948, 306.820086)"><g><path d="M 5.015625 -61.59375 L 25.78125 -61.59375 L 25.78125 0 L 5.015625 0 Z M 5.015625 -61.59375 "/></g></g></g><g fill="#131325" fill-opacity="1"><g transform="translate(1082.841464, 306.820086)"><g><path d="M 36.859375 1.40625 C 30.347656 1.40625 24.484375 0.0390625 19.265625 -2.6875 C 14.046875 -5.414062 9.953125 -9.226562 6.984375 -14.125 C 4.023438 -19.019531 2.546875 -24.578125 2.546875 -30.796875 C 2.546875 -37.015625 4.023438 -42.570312 6.984375 -47.46875 C 9.953125 -52.363281 14.046875 -56.175781 19.265625 -58.90625 C 24.484375 -61.632812 30.347656 -63 36.859375 -63 C 42.847656 -63 48.1875 -61.941406 52.875 -59.828125 C 57.570312 -57.710938 61.445312 -54.660156 64.5 -50.671875 L 51.390625 -38.984375 C 47.566406 -43.785156 43.078125 -46.1875 37.921875 -46.1875 C 33.578125 -46.1875 30.082031 -44.789062 27.4375 -42 C 24.800781 -39.21875 23.484375 -35.484375 23.484375 -30.796875 C 23.484375 -26.097656 24.800781 -22.351562 27.4375 -19.5625 C 30.082031 -16.78125 33.578125 -15.390625 37.921875 -15.390625 C 43.078125 -15.390625 47.566406 -17.796875 51.390625 -22.609375 L 64.5 -10.90625 C 61.445312 -6.914062 57.570312 -3.863281 52.875 -1.75 C 48.1875 0.351562 42.847656 1.40625 36.859375 1.40625 Z M 36.859375 1.40625 "/></g></g></g><g fill="#131325" fill-opacity="1"><g transform="translate(1175.492779, 306.820086)"><g><path d="M 56.21875 -15.65625 L 56.21875 0 L 5.015625 0 L 5.015625 -61.59375 L 55.078125 -61.59375 L 55.078125 -45.921875 L 25.421875 -45.921875 L 25.421875 -38.71875 L 51.46875 -38.71875 L 51.46875 -23.75 L 25.421875 -23.75 L 25.421875 -15.65625 Z M 56.21875 -15.65625 "/></g></g></g><g fill="#131325" fill-opacity="1"><g transform="translate(1261.897223, 306.820086)"><g><path d="M 27.984375 1.40625 C 22.878906 1.40625 17.90625 0.832031 13.0625 -0.3125 C 8.226562 -1.457031 4.253906 -2.992188 1.140625 -4.921875 L 7.828125 -20.0625 C 10.765625 -18.363281 14.050781 -17 17.6875 -15.96875 C 21.320312 -14.9375 24.8125 -14.421875 28.15625 -14.421875 C 31.03125 -14.421875 33.082031 -14.695312 34.3125 -15.25 C 35.539062 -15.8125 36.15625 -16.648438 36.15625 -17.765625 C 36.15625 -19.054688 35.347656 -20.023438 33.734375 -20.671875 C 32.128906 -21.316406 29.476562 -22.019531 25.78125 -22.78125 C 21.03125 -23.78125 17.070312 -24.851562 13.90625 -26 C 10.738281 -27.144531 7.976562 -29.019531 5.625 -31.625 C 3.28125 -34.238281 2.109375 -37.773438 2.109375 -42.234375 C 2.109375 -46.109375 3.191406 -49.628906 5.359375 -52.796875 C 7.535156 -55.960938 10.78125 -58.453125 15.09375 -60.265625 C 19.40625 -62.085938 24.640625 -63 30.796875 -63 C 35.015625 -63 39.160156 -62.539062 43.234375 -61.625 C 47.316406 -60.71875 50.910156 -59.382812 54.015625 -57.625 L 47.78125 -42.578125 C 41.738281 -45.628906 36.019531 -47.15625 30.625 -47.15625 C 25.28125 -47.15625 22.609375 -45.863281 22.609375 -43.28125 C 22.609375 -42.050781 23.398438 -41.128906 24.984375 -40.515625 C 26.566406 -39.898438 29.175781 -39.238281 32.8125 -38.53125 C 37.507812 -37.65625 41.46875 -36.644531 44.6875 -35.5 C 47.914062 -34.351562 50.71875 -32.488281 53.09375 -29.90625 C 55.46875 -27.332031 56.65625 -23.816406 56.65625 -19.359375 C 56.65625 -15.484375 55.570312 -11.976562 53.40625 -8.84375 C 51.238281 -5.707031 48 -3.210938 43.6875 -1.359375 C 39.375 0.484375 34.140625 1.40625 27.984375 1.40625 Z M 27.984375 1.40625 "/></g></g></g><g clip-path="url(#afcc25f417)"><path fill="#d71920" d="M 315.039062 374.246094 L 134.292969 282.804688 L 134.292969 363.199219 L 93.527344 363.199219 L 93.527344 216.527344 L 314.84375 328.523438 L 406.5625 281.363281 L 406.5625 225.265625 L 314.269531 261.671875 L 93.527344 157.453125 L 93.527344 6.839844 L 315.132812 115.191406 L 545.777344 7.515625 L 545.777344 364.929688 L 505.011719 364.929688 L 505.011719 71.390625 L 314.75 160.335938 L 134.292969 72.0625 L 134.292969 131.710938 L 315.710938 217.296875 L 447.328125 165.523438 L 447.328125 306.144531 Z M 315.039062 374.246094 " fill-opacity="1" fill-rule="nonzero"/></g></svg>